<svg xmlns="http://www.w3.org/2000/svg"><style>:root svg:not(:target){display:none}</style><svg viewBox="0 0 16 16" fill="none" id="account-button"><path fill-rule="evenodd" clip-rule="evenodd" d="M10.67 4a2.67 2.67 0 1 1-5.34 0 2.67 2.67 0 0 1 5.34 0Zm1.33 0a4 4 0 1 1-8 0 4 4 0 0 1 8 0Zm-8.8 8.31a7.55 7.55 0 0 1 4.8-1.64c1.84 0 3.56.6 4.8 1.64a4.83 4.83 0 0 1 1.87 3.69h1.33c0-1.77-.84-3.46-2.34-4.71a8.88 8.88 0 0 0-5.66-1.96c-2.12 0-4.16.7-5.66 1.96a6.16 6.16 0 0 0-2.34 4.71h1.33c0-1.33.63-2.66 1.87-3.69Z" fill="#333"></path></svg><svg viewBox="0 0 11 20" fill="none" id="arrow-hero-button-disabled"><path fill-rule="evenodd" clip-rule="evenodd" d="m9.72 0 1.28 1.32-8.43 8.68 8.43 8.68-1.28 1.32-9.72-10 9.72-10Z" fill="#BDBDBD"></path></svg><svg viewBox="0 0 11 20" fill="none" id="arrow-hero-button"><path fill-rule="evenodd" clip-rule="evenodd" d="m9.72 0 1.28 1.32-8.43 8.68 8.43 8.68-1.28 1.32-9.72-10 9.72-10Z" fill="#7859CF"></path></svg><svg viewBox="0 0 16 16" fill="none" id="basket-button"><path fill-rule="evenodd" clip-rule="evenodd" d="m5.66 3.88.23 2.79h4.22l.23-2.8a2.35 2.35 0 1 0-4.68 0Zm5.78 2.79.23-2.68a3.68 3.68 0 1 0-7.34 0l.23 2.68h-4.56l.19 1.33.82 5.71a2.67 2.67 0 0 0 2.64 2.29h8.7c1.33 0 2.46-.98 2.64-2.29l.82-5.71.19-1.33h-4.55Zm-.1 1.33h-.06l-.22 2.67h3.02l.38-2.67h-3.13Zm-1.4 0h-3.88l.22 2.67h3.44l.22-2.67Zm-5.22 0h-3.18l.38 2.67h3.02l-.22-2.67Zm1.9 6.67-.23-2.67h3.22l-.22 2.67h-2.78Zm4.33-2.67-.23 2.67h1.63c.67 0 1.23-.5 1.32-1.15l.22-1.52h-2.94Zm-5.9 0 .23 2.67h-1.63c-.67 0-1.23-.5-1.32-1.15l-.22-1.52h2.94Z" fill="#333"></path></svg><svg viewBox="0 0 16 16" fill="none" id="burger-button"><path fill-rule="evenodd" clip-rule="evenodd" d="M0 2h16v1.5h-16v-1.5Zm0 5.25h16v1.5h-16v-1.5Zm16 5.25h-16v1.5h16v-1.5Z" fill="#333"></path></svg><svg viewBox="0 0 16 16" fill="none" id="burger-close-button"><path fill-rule="evenodd" clip-rule="evenodd" d="m7.03 8-5.03-5.03.97-.97 5.03 5.03 5.03-5.03.97.97-5.03 5.03 5.03 5.03-.97.97-5.03-5.03-5.03 5.03-.97-.97 5.03-5.03Z" fill="#333"></path></svg><svg viewBox="0 0 20 16" fill="none" id="catalog-grocery-cart"><path fill-rule="evenodd" clip-rule="evenodd" d="M13.67 13.52v-.02h1.35l-.03.21a2.67 2.67 0 0 1-2.64 2.29h-8.7a2.67 2.67 0 0 1-2.64-2.29l-.82-5.71-.19-1.33h4.55l-.22-2.68a3.68 3.68 0 0 1 7.29-.99h-1.37a2.35 2.35 0 0 0-4.59.88l.23 2.79h3.61v1.33h-3.44l.22 2.67h3.44l.01-.17h1.34l-.01.17h1.44v1.33h-1.55l-.23 2.67h1.63c.67 0 1.23-.5 1.32-1.15Zm-8.95-5.52h-3.18l.38 2.67h3.02l-.22-2.67Zm1.9 6.67-.23-2.67h3.22l-.22 2.67h-2.78Zm-1.57-2.67.23 2.67h-1.63c-.67 0-1.23-.5-1.32-1.15l-.22-1.52h2.94Zm10.75-2v-2.8h-2.8v-1.4h2.8v-2.8h1.4v2.8h2.8v1.4h-2.8v2.8h-1.4Z" fill="#fff"></path></svg><svg viewBox="0 0 13 16" fill="none" id="footer-address"><path fill-rule="evenodd" clip-rule="evenodd" d="M11.8 6.5C11.8 8.83027 10.4332 10.9174 8.8884 12.5109C8.13169 13.2915 7.37106 13.9131 6.79878 14.3393C6.6918 14.419 6.59177 14.4916 6.5 14.5569C6.40823 14.4916 6.3082 14.419 6.20122 14.3393C5.62894 13.9131 4.86831 13.2915 4.1116 12.5109C2.56678 10.9174 1.2 8.83027 1.2 6.5C1.2 3.57289 3.57289 1.2 6.5 1.2C9.42711 1.2 11.8 3.57289 11.8 6.5ZM13 6.5C13 12.0899 6.5 16 6.5 16C6.5 16 0 12.0899 0 6.5C0 2.91015 2.91015 0 6.5 0C10.0899 0 13 2.91015 13 6.5ZM8.8 6.5C8.8 7.77026 7.77026 8.8 6.5 8.8C5.22974 8.8 4.2 7.77026 4.2 6.5C4.2 5.22974 5.22974 4.2 6.5 4.2C7.77026 4.2 8.8 5.22974 8.8 6.5ZM10 6.5C10 8.433 8.433 10 6.5 10C4.567 10 3 8.433 3 6.5C3 4.567 4.567 3 6.5 3C8.433 3 10 4.567 10 6.5Z" fill="#7859CF"></path></svg><svg viewBox="0 0 20 20" fill="none" id="footer-odnoklassniki"><path fill-rule="evenodd" clip-rule="evenodd" d="M1.4 1.4c-1.4 1.41-1.4 3.67-1.4 8.2v.91c0 4.46 0 6.7 1.4 8.09 1.41 1.4 3.67 1.4 8.2 1.4h.91c4.46 0 6.7 0 8.09-1.4 1.4-1.41 1.4-3.67 1.4-8.2v-.91c0-4.46 0-6.7-1.4-8.09-1.41-1.4-3.67-1.4-8.2-1.4h-.91c-4.46 0-6.7 0-8.09 1.4Zm8.62 8.8a3.03 3.03 0 1 0-.01-6.07 3.03 3.03 0 0 0 0 6.07Zm0-4.28a1.25 1.25 0 0 1 0 2.5c-.69 0-1.25-.56-1.25-1.25a1.23 1.23 0 0 1 1.25-1.25Zm1.21 6.76a5.73 5.73 0 0 0 1.76-.72.88.88 0 0 0 .28-1.24.88.88 0 0 0-1.24-.27 3.85 3.85 0 0 1-4.08 0 .9.9 0 0 0-1.23.27.9.9 0 0 0 .3 1.22 5.8 5.8 0 0 0 1.77.72l-1.69 1.69a.89.89 0 0 0 0 1.25c.18.18.4.25.63.25.24 0 .46-.09.64-.25l1.67-1.67 1.67 1.67a.89.89 0 0 0 1.25-1.25l-1.73-1.67Z" fill="currentColor"></path></svg><svg viewBox="0 0 13 16" fill="none" id="footer-phone"><path fill-rule="evenodd" clip-rule="evenodd" d="M1.47771 1.49035C0.407036 2.09016 -0.173009 3.23613 0.0457595 4.31941L0.404071 6.09367C1.3302 9.21701 2.90461 11.863 5.22921 14.2029L6.63362 15.3911C7.49109 16.1166 8.80393 16.2022 9.8746 15.6024L12.1043 14.3533C12.9766 13.8646 13.2662 12.8186 12.7298 12.0941L10.7951 9.48096C10.2793 8.7842 9.20705 8.66949 8.42947 9.22787L7.05383 10.2157C5.82614 9.33632 5.0461 8.02537 4.87507 6.55403L6.44457 5.89198C7.33172 5.51776 7.76545 4.55939 7.4015 3.77755L6.03652 0.845267C5.65806 0.0322596 4.57968 -0.247395 3.7074 0.241264L1.47771 1.49035ZM1.2824 4.01819C1.16306 3.42725 1.47948 2.80211 2.06354 2.47492L4.29323 1.22582C4.5113 1.10366 4.78089 1.17357 4.87551 1.37683L6.24049 4.30911C6.33147 4.50457 6.22304 4.74416 6.00126 4.83771L3.57088 5.8629L3.58692 6.27871C3.66894 8.40504 4.79869 10.3037 6.65548 11.4358L7.01858 11.6572L9.14878 10.1275C9.34317 9.98792 9.61123 10.0166 9.74019 10.1908L11.6748 12.8039C11.8089 12.9851 11.7365 13.2466 11.5185 13.3687L9.28877 14.6178C8.70471 14.945 7.98854 14.8983 7.52079 14.5026L6.11637 13.3144C4.3893 11.6193 2.29008 8.09128 1.64071 5.79245L1.2824 4.01819Z" fill="#7859CF"></path></svg><svg viewBox="0 0 22 22" fill="none" id="footer-pinterest"><path clip-rule="evenodd" d="M11 8.96454e-05C4.92488 8.96454e-05 0 4.92497 0 11C0 15.6602 2.8994 19.644 6.99129 21.2467C6.89517 20.3764 6.80825 19.0379 7.02943 18.0878C7.22934 17.2293 8.31931 12.6201 8.31931 12.6201C8.31931 12.6201 7.99028 11.9612 7.99028 10.987C7.99028 9.45743 8.87682 8.31552 9.98068 8.31552C10.9192 8.31552 11.3724 9.0201 11.3724 9.86499C11.3724 10.8088 10.7716 12.2199 10.4615 13.5275C10.2023 14.6223 11.0105 15.5152 12.0904 15.5152C14.0454 15.5152 15.5483 13.4537 15.5483 10.4781C15.5483 7.84429 13.6558 6.00285 10.9535 6.00285C7.82365 6.00285 5.98653 8.35042 5.98653 10.7765C5.98653 11.7219 6.35073 12.7357 6.80518 13.2868C6.89508 13.3958 6.90824 13.4912 6.88146 13.6023C6.79797 13.9498 6.6124 14.6969 6.57597 14.8498C6.528 15.0512 6.41655 15.0939 6.20808 14.9969C4.83426 14.3574 3.9753 12.3488 3.9753 10.7355C3.9753 7.26559 6.49644 4.07891 11.2434 4.07891C15.0593 4.07891 18.0247 6.79806 18.0247 10.432C18.0247 14.223 15.6344 17.2739 12.3167 17.2739C11.202 17.2739 10.1542 16.6949 9.79547 16.0109C9.79547 16.0109 9.2439 18.1111 9.11018 18.6258C8.86186 19.5812 8.19145 20.7788 7.74303 21.5095C8.77223 21.8281 9.86598 22 11 22C17.0751 22 22 17.0751 22 11C22 4.92497 17.0751 8.96454e-05 11 8.96454e-05Z" fill="currentColor"></path></svg><svg viewBox="0 0 20 20" fill="none" id="footer-vk"><path fill-rule="evenodd" clip-rule="evenodd" d="M1.40589 1.40589C0 2.81177 0 5.0745 0 9.6V10.4C0 14.9255 0 17.1882 1.40589 18.5941C2.81177 20 5.0745 20 9.6 20H10.4C14.9255 20 17.1882 20 18.5941 18.5941C20 17.1882 20 14.9255 20 10.4V9.6C20 5.0745 20 2.81177 18.5941 1.40589C17.1882 0 14.9255 0 10.4 0H9.6C5.0745 0 2.81177 0 1.40589 1.40589ZM3.37505 6.08337C3.48338 11.2834 6.08337 14.4084 10.6417 14.4084H10.9001V11.4334C12.5751 11.6 13.8417 12.825 14.35 14.4084H16.7167C16.0667 12.0417 14.3583 10.7334 13.2916 10.2334C14.3583 9.61671 15.8583 8.11671 16.2166 6.08337H14.0666C13.5999 7.73337 12.2168 9.23337 10.9001 9.37504V6.08337H8.75V11.85C7.41667 11.5167 5.73338 9.90004 5.65837 6.08337H3.37505Z" fill="currentColor"></path></svg><svg viewBox="0 0 12 16" fill="none" id="logo-footer-htmlacademy"><path d="M11.2151 5.75392L5.97184 2.49957V2.49875L5.97121 2.49916L5.97058 2.49875V2.49957L0.784854 5.75013V1.40658L6.00008 0.830884L11.2151 1.40658V5.75392ZM11.211 6.32987L9.12557 7.62344L5.98451 5.65607L5.97935 6.22863L8.66414 7.9096L8.20107 8.19683L5.98451 6.80853L5.97935 7.3811L7.72892 8.47648L7.31607 8.76717L7.30606 8.77351L5.98451 7.95383L5.97935 8.52631L6.8465 9.06404L5.96315 9.62244L0.796198 6.3886L5.97058 3.1139V3.11448L11.211 6.32987ZM11.2151 11.7713L6 15.0384L0.784854 11.7713V7.02542L5.97763 10.2796L5.98631 10.8693L2.42396 8.63702L2.41871 9.20959L5.99523 11.4728L6.00407 12.0782L2.42873 9.83883L2.42356 10.4113L6 12.6745L9.60624 10.4026V7.95712L11.2151 6.94552V11.7713ZM5.99984 -3.17891e-07L0 0.662267V12.2411L6 16L12 12.2411V0.662267L5.99984 -3.17891e-07Z" fill="#BDBDBD"></path></svg><svg viewBox="0 0 10 10" fill="none" id="select-arrow"><path fill-rule="evenodd" clip-rule="evenodd" d="m0 4.2 1.24-1.2 3.76 3.62 3.76-3.62 1.24 1.2-5 4.8-5-4.8Z" fill="#7859CF"></path></svg></svg>